solid ESP32_Enclosure
  facet normal 0.000000e+00 0.000000e+00 -1.000000e+00
    outer loop
      vertex 0.000000e+00 0.000000e+00 0.000000e+00
      vertex 0.000000e+00 3.800000e+01 0.000000e+00
      vertex 6.400000e+01 3.800000e+01 0.000000e+00
    endloop
  endfacet
  facet normal 0.000000e+00 0.000000e+00 -1.000000e+00
    outer loop
      vertex 0.000000e+00 0.000000e+00 0.000000e+00
      vertex 6.400000e+01 3.800000e+01 0.000000e+00
      vertex 6.400000e+01 0.000000e+00 0.000000e+00
    endloop
  endfacet
  facet normal 0.000000e+00 0.000000e+00 1.000000e+00
    outer loop
      vertex 0.000000e+00 0.000000e+00 2.000000e+00
      vertex 6.400000e+01 0.000000e+00 2.000000e+00
      vertex 6.400000e+01 3.800000e+01 2.000000e+00
    endloop
  endfacet
  facet normal 0.000000e+00 0.000000e+00 1.000000e+00
    outer loop
      vertex 0.000000e+00 0.000000e+00 2.000000e+00
      vertex 6.400000e+01 3.800000e+01 2.000000e+00
      vertex 0.000000e+00 3.800000e+01 2.000000e+00
    endloop
  endfacet
  facet normal 0.000000e+00 -1.000000e+00 0.000000e+00
    outer loop
      vertex 0.000000e+00 0.000000e+00 0.000000e+00
      vertex 6.400000e+01 0.000000e+00 0.000000e+00
      vertex 6.400000e+01 0.000000e+00 2.000000e+00
    endloop
  endfacet
  facet normal 0.000000e+00 -1.000000e+00 0.000000e+00
    outer loop
      vertex 0.000000e+00 0.000000e+00 0.000000e+00
      vertex 6.400000e+01 0.000000e+00 2.000000e+00
      vertex 0.000000e+00 0.000000e+00 2.000000e+00
    endloop
  endfacet
  facet normal 0.000000e+00 1.000000e+00 0.000000e+00
    outer loop
      vertex 6.400000e+01 3.800000e+01 0.000000e+00
      vertex 0.000000e+00 3.800000e+01 0.000000e+00
      vertex 0.000000e+00 3.800000e+01 2.000000e+00
    endloop
  endfacet
  facet normal 0.000000e+00 1.000000e+00 -0.000000e+00
    outer loop
      vertex 6.400000e+01 3.800000e+01 0.000000e+00
      vertex 0.000000e+00 3.800000e+01 2.000000e+00
      vertex 6.400000e+01 3.800000e+01 2.000000e+00
    endloop
  endfacet
  facet normal 1.000000e+00 0.000000e+00 0.000000e+00
    outer loop
      vertex 6.400000e+01 0.000000e+00 0.000000e+00
      vertex 6.400000e+01 3.800000e+01 0.000000e+00
      vertex 6.400000e+01 3.800000e+01 2.000000e+00
    endloop
  endfacet
  facet normal 1.000000e+00 0.000000e+00 0.000000e+00
    outer loop
      vertex 6.400000e+01 0.000000e+00 0.000000e+00
      vertex 6.400000e+01 3.800000e+01 2.000000e+00
      vertex 6.400000e+01 0.000000e+00 2.000000e+00
    endloop
  endfacet
  facet normal -1.000000e+00 0.000000e+00 0.000000e+00
    outer loop
      vertex 0.000000e+00 3.800000e+01 0.000000e+00
      vertex 0.000000e+00 0.000000e+00 0.000000e+00
      vertex 0.000000e+00 0.000000e+00 2.000000e+00
    endloop
  endfacet
  facet normal -1.000000e+00 0.000000e+00 0.000000e+00
    outer loop
      vertex 0.000000e+00 3.800000e+01 0.000000e+00
      vertex 0.000000e+00 0.000000e+00 2.000000e+00
      vertex 0.000000e+00 3.800000e+01 2.000000e+00
    endloop
  endfacet
  facet normal 0.000000e+00 0.000000e+00 -1.000000e+00
    outer loop
      vertex 0.000000e+00 0.000000e+00 2.000000e+00
      vertex 0.000000e+00 3.800000e+01 2.000000e+00
      vertex 2.000000e+00 3.800000e+01 2.000000e+00
    endloop
  endfacet
  facet normal 0.000000e+00 0.000000e+00 -1.000000e+00
    outer loop
      vertex 0.000000e+00 0.000000e+00 2.000000e+00
      vertex 2.000000e+00 3.800000e+01 2.000000e+00
      vertex 2.000000e+00 0.000000e+00 2.000000e+00
    endloop
  endfacet
  facet normal 0.000000e+00 0.000000e+00 1.000000e+00
    outer loop
      vertex 0.000000e+00 0.000000e+00 2.400000e+01
      vertex 2.000000e+00 0.000000e+00 2.400000e+01
      vertex 2.000000e+00 3.800000e+01 2.400000e+01
    endloop
  endfacet
  facet normal 0.000000e+00 0.000000e+00 1.000000e+00
    outer loop
      vertex 0.000000e+00 0.000000e+00 2.400000e+01
      vertex 2.000000e+00 3.800000e+01 2.400000e+01
      vertex 0.000000e+00 3.800000e+01 2.400000e+01
    endloop
  endfacet
  facet normal 0.000000e+00 -1.000000e+00 0.000000e+00
    outer loop
      vertex 0.000000e+00 0.000000e+00 2.000000e+00
      vertex 2.000000e+00 0.000000e+00 2.000000e+00
      vertex 2.000000e+00 0.000000e+00 2.400000e+01
    endloop
  endfacet
  facet normal 0.000000e+00 -1.000000e+00 0.000000e+00
    outer loop
      vertex 0.000000e+00 0.000000e+00 2.000000e+00
      vertex 2.000000e+00 0.000000e+00 2.400000e+01
      vertex 0.000000e+00 0.000000e+00 2.400000e+01
    endloop
  endfacet
  facet normal 0.000000e+00 1.000000e+00 0.000000e+00
    outer loop
      vertex 2.000000e+00 3.800000e+01 2.000000e+00
      vertex 0.000000e+00 3.800000e+01 2.000000e+00
      vertex 0.000000e+00 3.800000e+01 2.400000e+01
    endloop
  endfacet
  facet normal 0.000000e+00 1.000000e+00 -0.000000e+00
    outer loop
      vertex 2.000000e+00 3.800000e+01 2.000000e+00
      vertex 0.000000e+00 3.800000e+01 2.400000e+01
      vertex 2.000000e+00 3.800000e+01 2.400000e+01
    endloop
  endfacet
  facet normal 1.000000e+00 0.000000e+00 0.000000e+00
    outer loop
      vertex 2.000000e+00 0.000000e+00 2.000000e+00
      vertex 2.000000e+00 3.800000e+01 2.000000e+00
      vertex 2.000000e+00 3.800000e+01 2.400000e+01
    endloop
  endfacet
  facet normal 1.000000e+00 0.000000e+00 0.000000e+00
    outer loop
      vertex 2.000000e+00 0.000000e+00 2.000000e+00
      vertex 2.000000e+00 3.800000e+01 2.400000e+01
      vertex 2.000000e+00 0.000000e+00 2.400000e+01
    endloop
  endfacet
  facet normal -1.000000e+00 0.000000e+00 0.000000e+00
    outer loop
      vertex 0.000000e+00 3.800000e+01 2.000000e+00
      vertex 0.000000e+00 0.000000e+00 2.000000e+00
      vertex 0.000000e+00 0.000000e+00 2.400000e+01
    endloop
  endfacet
  facet normal -1.000000e+00 0.000000e+00 0.000000e+00
    outer loop
      vertex 0.000000e+00 3.800000e+01 2.000000e+00
      vertex 0.000000e+00 0.000000e+00 2.400000e+01
      vertex 0.000000e+00 3.800000e+01 2.400000e+01
    endloop
  endfacet
  facet normal 0.000000e+00 0.000000e+00 -1.000000e+00
    outer loop
      vertex 6.200000e+01 0.000000e+00 2.000000e+00
      vertex 6.200000e+01 3.800000e+01 2.000000e+00
      vertex 6.400000e+01 3.800000e+01 2.000000e+00
    endloop
  endfacet
  facet normal 0.000000e+00 0.000000e+00 -1.000000e+00
    outer loop
      vertex 6.200000e+01 0.000000e+00 2.000000e+00
      vertex 6.400000e+01 3.800000e+01 2.000000e+00
      vertex 6.400000e+01 0.000000e+00 2.000000e+00
    endloop
  endfacet
  facet normal 0.000000e+00 0.000000e+00 1.000000e+00
    outer loop
      vertex 6.200000e+01 0.000000e+00 2.400000e+01
      vertex 6.400000e+01 0.000000e+00 2.400000e+01
      vertex 6.400000e+01 3.800000e+01 2.400000e+01
    endloop
  endfacet
  facet normal 0.000000e+00 0.000000e+00 1.000000e+00
    outer loop
      vertex 6.200000e+01 0.000000e+00 2.400000e+01
      vertex 6.400000e+01 3.800000e+01 2.400000e+01
      vertex 6.200000e+01 3.800000e+01 2.400000e+01
    endloop
  endfacet
  facet normal 0.000000e+00 -1.000000e+00 0.000000e+00
    outer loop
      vertex 6.200000e+01 0.000000e+00 2.000000e+00
      vertex 6.400000e+01 0.000000e+00 2.000000e+00
      vertex 6.400000e+01 0.000000e+00 2.400000e+01
    endloop
  endfacet
  facet normal 0.000000e+00 -1.000000e+00 0.000000e+00
    outer loop
      vertex 6.200000e+01 0.000000e+00 2.000000e+00
      vertex 6.400000e+01 0.000000e+00 2.400000e+01
      vertex 6.200000e+01 0.000000e+00 2.400000e+01
    endloop
  endfacet
  facet normal 0.000000e+00 1.000000e+00 0.000000e+00
    outer loop
      vertex 6.400000e+01 3.800000e+01 2.000000e+00
      vertex 6.200000e+01 3.800000e+01 2.000000e+00
      vertex 6.200000e+01 3.800000e+01 2.400000e+01
    endloop
  endfacet
  facet normal 0.000000e+00 1.000000e+00 -0.000000e+00
    outer loop
      vertex 6.400000e+01 3.800000e+01 2.000000e+00
      vertex 6.200000e+01 3.800000e+01 2.400000e+01
      vertex 6.400000e+01 3.800000e+01 2.400000e+01
    endloop
  endfacet
  facet normal 1.000000e+00 0.000000e+00 0.000000e+00
    outer loop
      vertex 6.400000e+01 0.000000e+00 2.000000e+00
      vertex 6.400000e+01 3.800000e+01 2.000000e+00
      vertex 6.400000e+01 3.800000e+01 2.400000e+01
    endloop
  endfacet
  facet normal 1.000000e+00 0.000000e+00 0.000000e+00
    outer loop
      vertex 6.400000e+01 0.000000e+00 2.000000e+00
      vertex 6.400000e+01 3.800000e+01 2.400000e+01
      vertex 6.400000e+01 0.000000e+00 2.400000e+01
    endloop
  endfacet
  facet normal -1.000000e+00 0.000000e+00 0.000000e+00
    outer loop
      vertex 6.200000e+01 3.800000e+01 2.000000e+00
      vertex 6.200000e+01 0.000000e+00 2.000000e+00
      vertex 6.200000e+01 0.000000e+00 2.400000e+01
    endloop
  endfacet
  facet normal -1.000000e+00 0.000000e+00 0.000000e+00
    outer loop
      vertex 6.200000e+01 3.800000e+01 2.000000e+00
      vertex 6.200000e+01 0.000000e+00 2.400000e+01
      vertex 6.200000e+01 3.800000e+01 2.400000e+01
    endloop
  endfacet
  facet normal 0.000000e+00 0.000000e+00 -1.000000e+00
    outer loop
      vertex 2.000000e+00 0.000000e+00 2.000000e+00
      vertex 2.000000e+00 2.000000e+00 2.000000e+00
      vertex 6.200000e+01 2.000000e+00 2.000000e+00
    endloop
  endfacet
  facet normal 0.000000e+00 0.000000e+00 -1.000000e+00
    outer loop
      vertex 2.000000e+00 0.000000e+00 2.000000e+00
      vertex 6.200000e+01 2.000000e+00 2.000000e+00
      vertex 6.200000e+01 0.000000e+00 2.000000e+00
    endloop
  endfacet
  facet normal 0.000000e+00 0.000000e+00 1.000000e+00
    outer loop
      vertex 2.000000e+00 0.000000e+00 2.400000e+01
      vertex 6.200000e+01 0.000000e+00 2.400000e+01
      vertex 6.200000e+01 2.000000e+00 2.400000e+01
    endloop
  endfacet
  facet normal 0.000000e+00 0.000000e+00 1.000000e+00
    outer loop
      vertex 2.000000e+00 0.000000e+00 2.400000e+01
      vertex 6.200000e+01 2.000000e+00 2.400000e+01
      vertex 2.000000e+00 2.000000e+00 2.400000e+01
    endloop
  endfacet
  facet normal 0.000000e+00 -1.000000e+00 0.000000e+00
    outer loop
      vertex 2.000000e+00 0.000000e+00 2.000000e+00
      vertex 6.200000e+01 0.000000e+00 2.000000e+00
      vertex 6.200000e+01 0.000000e+00 2.400000e+01
    endloop
  endfacet
  facet normal 0.000000e+00 -1.000000e+00 0.000000e+00
    outer loop
      vertex 2.000000e+00 0.000000e+00 2.000000e+00
      vertex 6.200000e+01 0.000000e+00 2.400000e+01
      vertex 2.000000e+00 0.000000e+00 2.400000e+01
    endloop
  endfacet
  facet normal 0.000000e+00 1.000000e+00 0.000000e+00
    outer loop
      vertex 6.200000e+01 2.000000e+00 2.000000e+00
      vertex 2.000000e+00 2.000000e+00 2.000000e+00
      vertex 2.000000e+00 2.000000e+00 2.400000e+01
    endloop
  endfacet
  facet normal 0.000000e+00 1.000000e+00 -0.000000e+00
    outer loop
      vertex 6.200000e+01 2.000000e+00 2.000000e+00
      vertex 2.000000e+00 2.000000e+00 2.400000e+01
      vertex 6.200000e+01 2.000000e+00 2.400000e+01
    endloop
  endfacet
  facet normal 1.000000e+00 0.000000e+00 0.000000e+00
    outer loop
      vertex 6.200000e+01 0.000000e+00 2.000000e+00
      vertex 6.200000e+01 2.000000e+00 2.000000e+00
      vertex 6.200000e+01 2.000000e+00 2.400000e+01
    endloop
  endfacet
  facet normal 1.000000e+00 0.000000e+00 0.000000e+00
    outer loop
      vertex 6.200000e+01 0.000000e+00 2.000000e+00
      vertex 6.200000e+01 2.000000e+00 2.400000e+01
      vertex 6.200000e+01 0.000000e+00 2.400000e+01
    endloop
  endfacet
  facet normal -1.000000e+00 0.000000e+00 0.000000e+00
    outer loop
      vertex 2.000000e+00 2.000000e+00 2.000000e+00
      vertex 2.000000e+00 0.000000e+00 2.000000e+00
      vertex 2.000000e+00 0.000000e+00 2.400000e+01
    endloop
  endfacet
  facet normal -1.000000e+00 0.000000e+00 0.000000e+00
    outer loop
      vertex 2.000000e+00 2.000000e+00 2.000000e+00
      vertex 2.000000e+00 0.000000e+00 2.400000e+01
      vertex 2.000000e+00 2.000000e+00 2.400000e+01
    endloop
  endfacet
  facet normal 0.000000e+00 0.000000e+00 -1.000000e+00
    outer loop
      vertex 2.000000e+00 3.600000e+01 2.000000e+00
      vertex 2.000000e+00 3.800000e+01 2.000000e+00
      vertex 6.200000e+01 3.800000e+01 2.000000e+00
    endloop
  endfacet
  facet normal 0.000000e+00 0.000000e+00 -1.000000e+00
    outer loop
      vertex 2.000000e+00 3.600000e+01 2.000000e+00
      vertex 6.200000e+01 3.800000e+01 2.000000e+00
      vertex 6.200000e+01 3.600000e+01 2.000000e+00
    endloop
  endfacet
  facet normal 0.000000e+00 0.000000e+00 1.000000e+00
    outer loop
      vertex 2.000000e+00 3.600000e+01 2.400000e+01
      vertex 6.200000e+01 3.600000e+01 2.400000e+01
      vertex 6.200000e+01 3.800000e+01 2.400000e+01
    endloop
  endfacet
  facet normal 0.000000e+00 0.000000e+00 1.000000e+00
    outer loop
      vertex 2.000000e+00 3.600000e+01 2.400000e+01
      vertex 6.200000e+01 3.800000e+01 2.400000e+01
      vertex 2.000000e+00 3.800000e+01 2.400000e+01
    endloop
  endfacet
  facet normal 0.000000e+00 -1.000000e+00 0.000000e+00
    outer loop
      vertex 2.000000e+00 3.600000e+01 2.000000e+00
      vertex 6.200000e+01 3.600000e+01 2.000000e+00
      vertex 6.200000e+01 3.600000e+01 2.400000e+01
    endloop
  endfacet
  facet normal 0.000000e+00 -1.000000e+00 0.000000e+00
    outer loop
      vertex 2.000000e+00 3.600000e+01 2.000000e+00
      vertex 6.200000e+01 3.600000e+01 2.400000e+01
      vertex 2.000000e+00 3.600000e+01 2.400000e+01
    endloop
  endfacet
  facet normal 0.000000e+00 1.000000e+00 0.000000e+00
    outer loop
      vertex 6.200000e+01 3.800000e+01 2.000000e+00
      vertex 2.000000e+00 3.800000e+01 2.000000e+00
      vertex 2.000000e+00 3.800000e+01 2.400000e+01
    endloop
  endfacet
  facet normal 0.000000e+00 1.000000e+00 -0.000000e+00
    outer loop
      vertex 6.200000e+01 3.800000e+01 2.000000e+00
      vertex 2.000000e+00 3.800000e+01 2.400000e+01
      vertex 6.200000e+01 3.800000e+01 2.400000e+01
    endloop
  endfacet
  facet normal 1.000000e+00 0.000000e+00 0.000000e+00
    outer loop
      vertex 6.200000e+01 3.600000e+01 2.000000e+00
      vertex 6.200000e+01 3.800000e+01 2.000000e+00
      vertex 6.200000e+01 3.800000e+01 2.400000e+01
    endloop
  endfacet
  facet normal 1.000000e+00 0.000000e+00 0.000000e+00
    outer loop
      vertex 6.200000e+01 3.600000e+01 2.000000e+00
      vertex 6.200000e+01 3.800000e+01 2.400000e+01
      vertex 6.200000e+01 3.600000e+01 2.400000e+01
    endloop
  endfacet
  facet normal -1.000000e+00 0.000000e+00 0.000000e+00
    outer loop
      vertex 2.000000e+00 3.800000e+01 2.000000e+00
      vertex 2.000000e+00 3.600000e+01 2.000000e+00
      vertex 2.000000e+00 3.600000e+01 2.400000e+01
    endloop
  endfacet
  facet normal -1.000000e+00 0.000000e+00 0.000000e+00
    outer loop
      vertex 2.000000e+00 3.800000e+01 2.000000e+00
      vertex 2.000000e+00 3.600000e+01 2.400000e+01
      vertex 2.000000e+00 3.800000e+01 2.400000e+01
    endloop
  endfacet
endsolid ESP32_Enclosure
